@startuml DiagramaDeEstado 
 
title "Diagrama de estados del dominio (participante)\nEquipo 3" 
 
state "Iniciando Proceso" as IP 
 
 [*] --> IP
IP --> CA
IP --> PC  
 
 
 
state "Participando en Curso" as PC { 
 
  state "Mostrando Opciones" as MO 
  state "Editando Perfil" as Perfil{ 
 
    state "Editar Informacion" as ED 
    [*]-->ED 
    ED-->[*] 
  } 
 
 
  MO --> Perfil 
  [*] --> MO 
  MO --> presentarExamen 
  presentarExamen ----> SE 
 
  state "Seleccionando Examen" as SE { 
 
    state "Mostrando Examenes Disponibles" as ME 
    state "Seleccionando Tipo" as ST 
    state "Mostrando Instrucciones" as MI 
    state choice1 <<choice>> 
    [*] --> ME 
    ME --> ST 
    ST --> MI 
    MI --> choice1 : Acepta Instrucciones 
    choice1 --> PE : Si 
    choice1 --> ST : No 
 
    state "Presentando examen" as PE { 
 
      state "Mostrando el Enunciando de la Pregunta" as MP 
      state "Respondiendo Pregunta" as RP 
      state Finalizando 
      state "Listando Respuestas" as LR 
      [*] --> MP 
      MP --> RP 
      RP -left-> MP: Siguiente/Anterior 
      RP -right-> Finalizando 
      Finalizando --> LR 
      LR --> [*] 
      -- 
 
      state "Tiempo transcurriendo" as TT 
      state "Tiempo detenido" as TD 
      [*] -r-> TT 
 
      TT-r-> TD : [ExamenFinalizadoTiempo] 
      TT -r-> TD : [ExamenFinalizadoEleccion] 
      TD -r-> [*] 
    } 
 
    state "Examen Finalizado" as ExamenTerminado 
 
    PE -->  ExamenTerminado 
    ExamenTerminado --> [*] 
 
  } 
 
 
 
} 
 
 
state "Consultando ayuda" as CA { 
 
  [*] --> SA 
  state "Seleccionando ayuda" as SA 
  state "Mostrando preguntas frecuentes" as MF 
  state "Seleccionando pregunta" as SP 
  state "Mostrando respuesta" as MR 
  SA --> MF 
  MF --> SP 
  SP --> MR 
  MR -right-> MF 
  MR -left-> [*] 
} 
 
 
 
state "Finalizando Proceso" as FP 
 
CA --> FP 
PC --> FP
FP --> [*] 
 
@enduml